<svg height="499pt" viewBox="0 -46 499.312 499" width="499pt" xmlns="http://www.w3.org/2000/svg" xmlns:xlink="http://www.w3.org/1999/xlink"><linearGradient id="a" gradientUnits="userSpaceOnUse" x1="249.656" x2="249.656" y1="406.7808" y2=".1552"><stop offset="0" stop-color="#9f2fff"/><stop offset="1" stop-color="#0bb1d3"/></linearGradient><path d="m288 40.15625-40-40-172.929688 172.9375-42.925781-45.074219-15.410156 15.410157c-10.789063 10.789062-16.734375 25.132812-16.734375 40.390624 0 14.734376 5.601562 28.726563 15.761719 39.390626l146.445312 153.777343.304688-.289062c6.578125 6.640625 15.695312 10.769531 25.769531 10.769531 9.695312 0 18.808594-3.777344 25.65625-10.625l10.0625-10.0625 40 40 235.3125-235.3125-171.3125-171.3125zm-135.257812 303.6875-125.398438-131.664062c-7.3125-7.679688-11.34375-17.75-11.34375-28.359376 0-10.984374 4.28125-21.3125 12.046875-29.082031l3.816406-3.8125 148.960938 156.414063-18.191407 18.191406c-5.097656 5.089844-8.480468 11.425781-9.890624 18.3125zm49.882812 21.6875c-3.824219 3.824219-8.921875 5.9375-14.34375 5.9375-11.175781 0-20.28125-9.105469-20.28125-20.289062 0-5.414063 2.113281-10.511719 5.9375-14.335938l29.238281-29.238281-117.070312-122.929688 161.894531-161.894531 148.6875 148.6875zm61.375 18.625-28.6875-28.6875 184-184-120-120 28.6875-28.6875 148.6875 148.6875zm-109.65625-242.34375 11.3125 11.3125-16 16-11.3125-11.3125zm107.3125-84.6875-80 80-11.3125-11.3125 80-80zm0 0" fill="url(#a)"/></svg>